<?xml version="1.0" encoding="utf-8"?>
<!-- Generator: Adobe Illustrator 27.1.1, SVG Export Plug-In . SVG Version: 6.00 Build 0)  -->
<svg version="1.1" id="Layer_1" xmlns="http://www.w3.org/2000/svg" xmlns:xlink="http://www.w3.org/1999/xlink" x="0px" y="0px"
	 viewBox="0 0 490 560" style="enable-background:new 0 0 490 560;" xml:space="preserve">
<style type="text/css">
	.st0{display:none;}
	.st1{fill:#F0F8FF;}
</style>
<path class="st0" d="M331,54.2c0,0-40.7-54.2-86-54.2c-45.2,0-85.9,54.2-85.9,54.2S0,226.7,0,315c0,96.7,43.3,122.5,140,122.5
	c21.4,0,41.8-3.8,60.8-10.9L175,542.5c0,9.6,7.9,17.5,17.5,17.5h105c9.7,0,17.5-7.9,17.5-17.5l-25.7-115.9
	c18.9,7,39.4,10.9,60.7,10.9c96.7,0,140-25.8,140-122.5C490,226.8,331,54.2,331,54.2L331,54.2z"/>
<path class="st1" d="M331,54.2c0,0-40.7-54.2-86-54.2c-45.2,0-85.9,54.2-85.9,54.2S0,226.7,0,315c0,96.7,43.3,122.5,140,122.5
	c21.4,0,41.8-3.8,60.8-10.9L175,542.5c0,9.6,7.9,17.5,17.5,17.5h105c9.7,0,17.5-7.9,17.5-17.5l-25.7-115.9
	c18.9,7,39.4,10.9,60.7,10.9c96.7,0,140-25.8,140-122.5C490,226.8,331,54.2,331,54.2L331,54.2z"/>
</svg>
