<?xml version="1.0" encoding="utf-8"?>
<!-- Generator: Adobe Illustrator 27.1.1, SVG Export Plug-In . SVG Version: 6.00 Build 0)  -->
<svg version="1.1" id="Layer_1" xmlns="http://www.w3.org/2000/svg" xmlns:xlink="http://www.w3.org/1999/xlink" x="0px" y="0px"
	 viewBox="0 0 490 560" style="enable-background:new 0 0 490 560;" xml:space="preserve">
<style type="text/css">
	.st0{fill:#F0F8FF;}
	.st1{display:none;}
</style>
<path class="st0" d="M367.5,210c-17.1,0-20.2-4.2-20.2-4.2s-7.5-4.6,0.1-16.1c12.7-19.3,20.1-42.4,20.1-67.2
	C367.5,54.8,312.6,0,245,0c-67.7,0-122.5,54.8-122.5,122.5c0,22.7,6.2,44,17,62.2c8.1,13.7,4.9,17.6,4.9,17.6s-4.8,7.6-21.9,7.6
	C54.8,210,0,264.8,0,332.5S54.8,455,122.5,455c27.2,0,52.4-8.9,72.7-24L175,542.5c0,9.6,7.8,17.5,17.5,17.5h105
	c9.6,0,17.5-7.9,17.5-17.5L294.7,431c20.4,15.1,45.5,24,72.8,24c67.7,0,122.5-54.8,122.5-122.5S435.2,210,367.5,210L367.5,210z"/>
<path class="st1" d="M367.5,210c-17.1,0-20.2-4.2-20.2-4.2s-7.5-4.6,0.1-16.1c12.7-19.3,20.1-42.4,20.1-67.2
	C367.5,54.8,312.6,0,245,0c-67.7,0-122.5,54.8-122.5,122.5c0,22.7,6.2,44,17,62.2c8.1,13.7,4.9,17.6,4.9,17.6s-4.8,7.6-21.9,7.6
	C54.8,210,0,264.8,0,332.5S54.8,455,122.5,455c27.2,0,52.4-8.9,72.7-24L175,542.5c0,9.6,7.8,17.5,17.5,17.5h105
	c9.6,0,17.5-7.9,17.5-17.5L294.7,431c20.4,15.1,45.5,24,72.8,24c67.7,0,122.5-54.8,122.5-122.5S435.2,210,367.5,210L367.5,210z"/>
</svg>
