<?xml version="1.0" encoding="utf-8"?>
<!-- Generator: Adobe Illustrator 27.1.1, SVG Export Plug-In . SVG Version: 6.00 Build 0)  -->
<svg version="1.1" id="Layer_1" xmlns="http://www.w3.org/2000/svg" xmlns:xlink="http://www.w3.org/1999/xlink" x="0px" y="0px"
	 viewBox="0 0 560 560" style="enable-background:new 0 0 560 560;" xml:space="preserve">
<style type="text/css">
	.st0{fill:#F0F8FF;}
	.st1{display:none;}
</style>
<path class="st0" d="M560,157.5c0,51-29.7,91.9-61.9,125.2L280,560L61.9,282.7C30.7,250.9,0,208.5,0,157.5C0,70.5,70.5,0,157.5,0
	c70,0,105,53.3,122.5,53.3S332.5,0,402.5,0C489.4,0,560,70.5,560,157.5L560,157.5z"/>
<path class="st1" d="M560,157.5c0,51-29.7,91.9-61.9,125.2L280,560L61.9,282.7C30.7,250.9,0,208.5,0,157.5C0,70.5,70.5,0,157.5,0
	c70,0,105,53.3,122.5,53.3S332.5,0,402.5,0C489.4,0,560,70.5,560,157.5L560,157.5z"/>
</svg>
