<?xml version="1.0" encoding="utf-8"?>
<!-- Generator: Adobe Illustrator 27.1.1, SVG Export Plug-In . SVG Version: 6.00 Build 0)  -->
<svg version="1.1" id="Layer_1" xmlns="http://www.w3.org/2000/svg" xmlns:xlink="http://www.w3.org/1999/xlink" x="0px" y="0px"
	 viewBox="0 0 557.9 245.4" style="enable-background:new 0 0 557.9 245.4;" xml:space="preserve">
<style type="text/css">
	.st0{fill:#F0F8FF;}
	.st1{display:none;}
	.st2{display:inline;}
</style>
<g>
	<path class="st0" d="M533.4,136.7c0.2,0.2,0.5,0.4,0.6,0.7c0.6-0.3,1.3-0.6,1.9-1c6.6-3.3,14-7,14.6-12.8c0-0.3,0-0.6,0-0.9
		c0-0.2,0-0.4,0-0.6c0-0.1,0-0.1,0-0.2l0,0c0-0.1,0-0.1,0-0.2s0-0.2,0-0.2c-0.1-0.5-0.1-1-0.2-1.4c-0.4-1.5-1.2-2.7-2.2-3.8
		c-0.8-0.7-1.7-1.4-2.5-2.1c-2.1-1.4-4.6-2.5-7-3.6c-1.6-0.7-3.2-1.4-4.6-2.2l0,0c-6.4,5.2-13.3,10.1-20.5,14.3
		C520.4,126.9,527.1,131.6,533.4,136.7L533.4,136.7z M527.3,141.3c-6.7-5.4-14-10.2-21.6-14.4c-13.6,7-28.3,11.9-43.2,13.8
		c-21.4,2.7-43.4-0.9-63.8-13.5c-7.2,5-13.4,11.4-19.3,18c2.5,2.4,5.1,4.8,7.9,6.9c0.1,0,0.1,0.1,0.2,0.2c1,0.8,2.1,1.6,3.2,2.3
		c14.9,10,29.5,13.2,42.9,16.2c2.4,0.5,4.8,1.1,5.5,1.2c7.2,1.7,14.1,2,20.9,1.4c2.7-0.6,5.5-1,8.5-1.3c5.6-1.2,11.1-3.1,16.5-5.4
		C499.8,160.4,513.8,150.7,527.3,141.3L527.3,141.3z M497.3,122.7c-11.5-5.4-23.7-9.1-36-10.6c-18.6-2.3-37.7,0.6-55.5,10.6
		c17.9,10.1,37,12.9,55.7,10.6C473.8,131.7,485.9,128,497.3,122.7L497.3,122.7z M462.2,104.7c15,1.8,29.7,6.7,43.4,13.8
		c7.6-4.2,14.9-9,21.6-14.4c-18.5-12.9-37.9-26.2-58.9-30.7c-2.8-0.3-5.5-0.7-8.1-1.3c-6.9-0.7-13.9-0.3-21.1,1.3
		c-0.8,0.2-3.1,0.7-5.5,1.2c-13.4,3-28,6.2-42.9,16.2c-1.1,0.7-2.1,1.5-3.2,2.3c-0.1,0.1-0.2,0.1-0.2,0.2c-2.8,2.1-5.4,4.4-7.9,6.9
		c5.9,6.6,12.1,13,19.3,18C419,105.7,440.9,102.1,462.2,104.7L462.2,104.7z M374.5,150.8l-1.7,2c-9.4,11-18.5,21.7-30.4,27.8
		c-1.3,0.7-2.6,1.2-3.9,1.8c-0.5,1.3-1.1,2.6-1.8,3.9c-6.1,11.9-16.8,21-27.8,30.4c-1.4,1.2-2.8,2.4-4.2,3.6
		c-0.1,0.2-0.3,0.4-0.5,0.6c-0.3,0.3-0.7,0.6-1.1,0.8c-7.6,6.6-15,13.7-20.6,22c-0.8,1.2-2.3,1.8-3.7,1.6c-1.4,0.2-2.9-0.4-3.7-1.6
		c-7-10.4-16.8-18.9-26.4-27c-11-9.4-21.7-18.5-27.8-30.4c-0.7-1.3-1.2-2.6-1.8-3.9c-1.3-0.5-2.6-1.1-3.9-1.8
		c-11.9-6.1-21-16.8-30.4-27.8l-1.7-2c-2.4,2.4-5,4.7-7.7,6.8c-2.3,4.2-2.4,8.8-1.2,13.7c1.4,5.6,4.6,11.5,8.5,17.7
		c1.4,2.2,1.8,4.2,1.5,6.2c-0.5,3-2.7,5.2-6.2,6.5c-2.6,1-6.1,1.6-10.2,1.7c-9.5,0.3-22.9-1.9-35.6-7c-3.6,6.1-8.7,9.8-14.7,11.4
		c-6.3,1.7-13.5,0.9-20.8-2.1c-16.1-6.7-26.2-4.8-41.5-2.1c-2.6,0.5-5.3,1-6.8,1.2c-7,1.2-10.1-1-10.8-5.4c-0.6-3.7,1.5-8.7,3.8-14
		c0.3-0.7,0.6-1.4,1-2.4c1-2.4-1.3-7.6-5.6-14c-5.3-8.1-13.6-17.4-22.7-25.9c-3.8-3.6-6.9-6.6-9.3-9.5c-3.1-2.8-5-6.2-4.8-11.1
		c0-1.1,0.1-2.2,0.4-3.4c0.4-1.8,1.2-3.4,2.1-4.7c1.9-2.9,4.7-6.1,8.7-9.7c9.7-8.7,18.7-18.6,24.6-27.3c4.8-7,7.4-12.6,6.3-15.1
		c-0.4-1-0.7-1.7-1-2.4c-2.3-5.4-4.4-10.3-3.8-14c0.7-4.4,3.8-6.6,10.8-5.4c1.5,0.3,4.2,0.7,6.8,1.2c15.3,2.8,25.4,4.6,41.5-2.1
		c7.3-3,14.5-3.8,20.8-2.1c6,1.6,11.1,5.4,14.7,11.4c12.8-5.1,26.1-7.3,35.6-7c4.1,0.1,7.6,0.7,10.2,1.7c3.5,1.4,5.7,3.5,6.2,6.5
		c0.3,1.9-0.1,4-1.5,6.2c-3.9,6.2-7.1,12.1-8.5,17.7c-1.2,4.9-1.1,9.4,1.2,13.7c2.7,2.1,5.3,4.4,7.8,6.8l1.7-2
		c9.4-11,18.5-21.7,30.4-27.8c1.3-0.7,2.6-1.2,3.9-1.8c0.5-1.3,1.1-2.6,1.8-3.9c6.1-11.9,16.8-21,27.8-30.4
		c9.6-8.1,19.4-16.6,26.4-27c0.8-1.2,2.3-1.8,3.7-1.6c1.4-0.2,2.9,0.4,3.7,1.6c7,10.4,16.8,18.9,26.4,27c11,9.4,21.7,18.5,27.8,30.4
		c0.7,1.3,1.2,2.6,1.8,3.9c1.3,0.5,2.6,1.1,3.9,1.8c11.9,6.1,21,16.8,30.4,27.8l1.7,2c2.4-2.4,5-4.6,7.7-6.8
		c2.3-4.2,2.4-8.8,1.2-13.7c-1.4-5.6-4.6-11.5-8.5-17.7c-1.4-2.2-1.8-4.2-1.5-6.2c0.5-3,2.7-5.2,6.2-6.5c2.6-1,6.1-1.6,10.2-1.7
		c9.5-0.3,22.9,1.9,35.6,7c3.6-6.1,8.7-9.8,14.7-11.4c6.3-1.7,13.5-0.9,20.8,2.1c16.1,6.7,26.2,4.8,41.5,2.1c2.6-0.5,5.3-1,6.8-1.2
		c7-1.2,10.1,1,10.8,5.4c0.6,3.7-1.5,8.7-3.8,14c-0.3,0.7-0.6,1.4-1,2.4c-1.3,3,2.3,9.8,8.4,18c6.6,8.9,16.1,18.9,25.9,27.3
		c4.5,2.8,8,6.7,8.5,13.5c0.3,2.5,0,4.7-0.6,6.7c-0.5,1.9-1.4,3.7-2.6,5.2c-0.5,0.6-1.1,1.2-1.8,1.8c-11,8.9-22,20.2-29.4,30.2
		c-6.1,8.2-9.6,15.1-8.4,18c0.4,1,0.7,1.7,1,2.4c2.3,5.4,4.4,10.3,3.8,14c-0.7,4.4-3.8,6.6-10.8,5.4c-1.5-0.3-4.2-0.7-6.8-1.2
		c-15.3-2.8-25.4-4.6-41.5,2.1c-7.3,3-14.5,3.8-20.8,2.1c-6-1.6-11.1-5.4-14.7-11.4c-12.8,5.1-26.1,7.3-35.6,7
		c-4.1-0.1-7.6-0.7-10.2-1.7c-3.5-1.4-5.7-3.5-6.2-6.5c-0.3-1.9,0.1-4,1.5-6.2c3.9-6.2,7.1-12.1,8.5-17.7c1.2-4.9,1.1-9.4-1.2-13.7
		C379.5,155.4,377,153.1,374.5,150.8L374.5,150.8z M367.2,147.9c0.7-0.9,1.5-1.7,2.2-2.6c-4-4.4-7.6-9-11.2-13.5
		c-1-1.2-1.9-2.4-2.8-3.5c-5.6,6.5-11.5,12.2-18.4,16.2c1,2.6,1.9,5.2,2.6,7.8c1.8,6.8,2.4,13.8,1.5,20.6
		C350.6,167.3,358.8,157.8,367.2,147.9L367.2,147.9z M374.3,139.7c5.4-6.1,11.2-12,17.9-17c-6.7-5-12.5-10.9-17.9-17
		c-3.6,4-7,8.2-10.3,12.3c-1.3,1.6-2.5,3.1-3.8,4.6c1.3,1.5,2.5,3.1,3.8,4.7C367.3,131.4,370.7,135.7,374.3,139.7L374.3,139.7z
		 M329.1,184.8c-6.8,0.9-13.8,0.3-20.6-1.5c-2.7-0.7-5.3-1.6-7.9-2.6c-4,6.8-9.6,12.6-16,18.2c1.2,1,2.3,1.9,3.5,2.9
		c4.5,3.6,9,7.4,13.4,11.4c0.8-0.7,1.7-1.4,2.5-2.1C313.9,202.6,323.4,194.5,329.1,184.8L329.1,184.8z M310.4,176.1
		c7.4,1.9,15.2,2.3,22.2,0.4c1.9-7.1,1.6-14.8-0.4-22.2c-0.6-2.2-1.3-4.4-2.1-6.5c-6.9,2.6-14.9,3.4-24.4,1.8
		c1.6,9.6,0.8,17.6-1.8,24.5C306,174.8,308.2,175.5,310.4,176.1L310.4,176.1z M293.6,177.4c-5.6-3-10.6-6.7-14.8-10.8
		c-4.2,4.1-9.2,7.8-14.7,10.8c3.6,6.2,8.9,11.5,14.7,16.7C284.8,188.9,290,183.6,293.6,177.4L293.6,177.4z M281.6,158.7
		c4,4.6,9.3,8.7,15.2,12c2.5-7,3-15.1,0.4-25.1c-0.5-2,0.7-4,2.7-4.5c0.6-0.2,1.3-0.1,1.9,0c9.9,2.5,18,2.1,25-0.4
		c-3.2-5.9-7.4-11.2-12-15.2c-0.1-0.1-0.3-0.2-0.4-0.4c-1.4-1.5-1.2-3.9,0.4-5.2c4.7-4.1,8.9-9.4,12.1-15.4
		c-6.9-2.4-14.9-2.8-24.8-0.3c-2,0.5-4-0.7-4.5-2.7c-0.2-0.6-0.1-1.3,0-1.9c2.6-10.1,2.1-18.2-0.4-25.1c-6.1,3.3-11.6,7.5-15.7,12.3
		c-1.4,1.5-3.7,1.7-5.2,0.4c-0.1-0.1-0.3-0.2-0.4-0.4c-4.1-4.7-9.4-8.9-15.5-12.1c-2.6,7-3.1,15.1-0.5,25.1c0.2,0.6,0.2,1.2,0,1.9
		c-0.5,2-2.5,3.2-4.5,2.7c-9.8-2.5-17.8-2.1-24.7,0.3c3.3,6,7.4,11.3,12.1,15.4c1.5,1.4,1.7,3.7,0.4,5.2c-0.1,0.1-0.2,0.3-0.4,0.4
		c-4.5,4-8.7,9.2-11.9,15c7,2.5,15.1,2.9,25.1,0.4c0.6-0.2,1.2-0.2,1.9,0c2,0.5,3.2,2.5,2.7,4.5c-2.6,10-2.1,18.2,0.4,25.2
		c5.9-3.2,11.1-7.3,15-11.9c0.1-0.1,0.2-0.3,0.4-0.4C277.9,157,280.3,157.2,281.6,158.7L281.6,158.7z M257.1,180.7
		c-2.6,1.1-5.3,1.9-8,2.7c-6.8,1.8-13.8,2.4-20.6,1.5c5.7,9.7,15.2,17.9,25,26.3c0.8,0.7,1.7,1.4,2.5,2.1c4.4-4.1,9.1-7.8,13.6-11.5
		c1.1-0.9,2.3-1.9,3.4-2.8C266.7,193.3,261.1,187.5,257.1,180.7L257.1,180.7z M247.3,176.1c2.3-0.6,4.5-1.3,6.6-2.2
		c-2.6-7-3.5-14.9-1.8-24.6c-9.6,1.6-17.6,0.8-24.5-1.8c-0.9,2.2-1.6,4.4-2.2,6.7c-1.9,7.4-2.3,15.2-0.4,22.2
		C232.1,178.4,239.8,178.1,247.3,176.1L247.3,176.1z M190.5,147.9c8.4,9.8,16.5,19.4,26.3,25c-0.9-6.8-0.3-13.8,1.5-20.6
		c0.7-2.7,1.6-5.4,2.7-8c-6.9-4-12.8-9.7-18.4-16.1c-1,1.2-2,2.4-3,3.7c-3.6,4.5-7.2,9-11.2,13.4C189,146.2,189.7,147.1,190.5,147.9
		L190.5,147.9z M178.2,145.1c-5.9-6.6-12.1-13-19.3-18c-21.1,13.1-43.9,16.4-66.1,13.2c-14.1-2.1-27.9-6.8-40.9-13.4
		c-7.6,4.2-14.9,9-21.6,14.4c18.5,12.9,37.9,26.2,58.9,30.7c2.8,0.3,5.5,0.7,8.1,1.3c6.9,0.7,13.9,0.3,21.1-1.3
		c0.8-0.2,3.1-0.7,5.5-1.2c13.4-3,28-6.2,42.9-16.2c1.1-0.7,2.2-1.5,3.2-2.3c0.1-0.1,0.1-0.1,0.2-0.1
		C173.1,149.9,175.7,147.6,178.2,145.1L178.2,145.1z M165.5,122.7c6.7,5,12.4,10.9,17.9,17c3.6-4,7-8.3,10.3-12.4
		c1.3-1.6,2.6-3.2,3.9-4.8c-1.3-1.5-2.6-3.1-3.8-4.7c-3.3-4.1-6.7-8.2-10.3-12.2C178,111.8,172.2,117.7,165.5,122.7L165.5,122.7z
		 M151.8,122.7c-18.4-10.4-38.2-13.1-57.5-10.4c-11.7,1.6-23.2,5.3-34.1,10.4c10.8,5,22.1,8.6,33.6,10.3
		C113.3,135.8,133.2,133.2,151.8,122.7L151.8,122.7z M93.3,105c22-3.1,44.6,0.3,65.6,13.3c7.2-5,13.4-11.4,19.3-18
		c-2.5-2.4-5.1-4.7-7.9-6.8c-0.1-0.1-0.2-0.1-0.3-0.2c-1-0.8-2.1-1.5-3.2-2.3c-14.9-10-29.5-13.2-42.9-16.2
		c-2.4-0.5-4.8-1.1-5.5-1.2c-7.2-1.7-14.2-2-21.1-1.3c-2.5,0.5-5.2,1-8.1,1.3c-21,4.5-40.5,17.8-58.9,30.7
		c6.7,5.4,14,10.2,21.6,14.4C65,111.8,79,107,93.3,105L93.3,105z M23.9,137c6.4-5.2,13.2-10,20.4-14.3c-7.2-4.2-14-9-20.4-14.2
		c-2,1.3-3.9,2.4-5.7,3.5c-6.2,3.7-10.4,6.2-10.6,10.6c0,0.3,0,0.5,0.1,0.8c0.2,1.4,0.9,2.8,2.1,4.4c2,2.1,5.2,3.9,8.9,6.1
		C20.3,134.8,22.1,135.8,23.9,137L23.9,137z M274.4,207.5c-4.2,3.4-8.5,6.9-12.6,10.6c6.1,5.5,12.1,11.2,17.1,17.9
		c5-6.7,11-12.5,17.1-17.9c-4-3.7-8.3-7.1-12.4-10.5c-1.6-1.3-3.1-2.5-4.6-3.8C277.4,205,275.9,206.2,274.4,207.5L274.4,207.5z
		 M333.6,137.5c6.3-3.7,11.7-9,16.9-15c-5.2-6-10.5-11.3-16.7-14.9c-3,5.7-6.8,10.8-11,15.1C326.8,126.9,330.6,132,333.6,137.5
		L333.6,137.5z M355.3,116.8c0.9-1.2,1.9-2.3,2.8-3.5c3.6-4.4,7.2-8.9,11.2-13.3c-0.7-0.8-1.4-1.7-2.2-2.5
		c-8.4-9.8-16.5-19.4-26.3-25c0.9,6.8,0.3,13.8-1.5,20.6c-0.7,2.6-1.5,5.1-2.5,7.6C343.8,104.5,349.7,110.3,355.3,116.8L355.3,116.8
		z M391.7,81.6c14.2-8.3,27.8-11.3,40.4-14.1c1.3-0.3,2.6-0.6,5.5-1.2c1.2-0.3,2.5-0.5,3.7-0.8c-2.8-1.4-5-2.7-6.7-3.7l-0.3-0.2
		c-0.1,0-0.2-0.1-0.3-0.1c-14.6-8.6-32.4-12.3-44-12c-3.2,0.1-5.9,0.5-7.7,1.2c-1,0.4-1.5,0.7-1.5,0.8s0.1,0.4,0.4,0.9
		c4.3,6.8,7.9,13.4,9.5,19.9C391.5,75.5,391.8,78.6,391.7,81.6L391.7,81.6z M460.9,64.6c22.8,2.2,43.5,14.6,62.9,28
		c-2.3-2.6-4.4-5.3-6.3-7.8c-7.6-10.2-11.6-19.6-9.2-25.3c0.3-0.6,0.7-1.5,1.1-2.5c1.9-4.3,3.6-8.2,3.3-9.8c0-0.2-0.6,0.4-2.2,0.7
		c-3.3,0.6-5.1,0.9-6.8,1.2c-16.6,3-27.6,5-45.7-2.5c-5.8-2.4-11.3-3-16.1-1.8c-3.9,1-7.2,3.4-9.7,7.3c1.9,0.9,3.7,1.9,5.5,2.9
		c0.1,0.1,0.2,0.1,0.3,0.2l0.3,0.2C442.2,57.7,449.9,62.1,460.9,64.6L460.9,64.6z M523.9,152.7c-11.4,7.9-23.3,15.4-35.8,20.7
		c-8.7,3.7-17.7,6.3-27,7.3c-11.1,2.5-18.8,7-22.8,9.3l-0.3,0.2c-0.1,0.1-0.2,0.1-0.3,0.2c-1.8,1-3.6,2-5.5,2.9
		c2.5,3.8,5.9,6.2,9.7,7.3c4.7,1.3,10.3,0.6,16.1-1.8c18.1-7.5,29.1-5.5,45.7-2.5c1.7,0.3,3.5,0.6,6.8,1.2c1.6,0.3,2.2,0.9,2.2,0.7
		c0.3-1.6-1.4-5.5-3.3-9.8c-0.4-0.9-0.8-1.9-1.1-2.5c-2.4-5.7,1.7-15.1,9.3-25.4C519.5,158,521.6,155.4,523.9,152.7L523.9,152.7z
		 M441.2,180c-1.2-0.2-2.5-0.5-3.7-0.8c-2.8-0.7-4.1-1-5.5-1.2c-12.5-2.8-26.1-5.8-40.4-14.1c0.2,3-0.2,6.1-1,9.2
		c-1.6,6.4-5.2,13.1-9.5,19.9c-0.3,0.5-0.5,0.8-0.4,0.9c0,0.2,0.6,0.5,1.5,0.8c1.8,0.7,4.5,1.1,7.7,1.2c11.6,0.4,29.4-3.4,44-12
		c0.1-0.1,0.2-0.1,0.3-0.1l0.3-0.2C436.2,182.7,438.4,181.4,441.2,180L441.2,180z M306.1,95.7c9.4-1.6,17.3-0.8,24.1,1.7
		c0.8-2,1.5-4.1,2-6.2c1.9-7.4,2.3-15.2,0.4-22.2c-7.1-1.9-14.8-1.6-22.2,0.4c-2,0.5-4,1.2-6,1.9C307,78,307.8,85.9,306.1,95.7
		L306.1,95.7z M294.1,67.7c-3.8-6.2-9.2-11.4-15.3-16.5c-6,5.1-11.3,10.4-15,16.6c5.7,3,10.8,6.8,15.1,11
		C283.1,74.6,288.4,70.8,294.1,67.7L294.1,67.7z M272.9,46.4l-1.4-1.1c-5.2-4.1-10.5-8.4-15.5-13.1c-0.8,0.7-1.7,1.4-2.5,2.1
		c-9.8,8.4-19.4,16.5-25,26.3c6.8-0.9,13.8-0.3,20.6,1.5c2.6,0.7,5.1,1.5,7.6,2.5C260.8,57.8,266.5,52,272.9,46.4L272.9,46.4z
		 M276.2,39.5c0.9,0.7,1.7,1.4,2.5,2c1.4-1.1,2.8-2.3,4.3-3.5c4.3-3.5,8.7-7,12.9-10.8c-6.1-5.4-12.1-11.2-17.1-17.9
		c-5,6.7-11,12.5-17.1,18C266.4,31.7,271.4,35.7,276.2,39.5L276.2,39.5z M284.6,46.4c6.6,5.6,12.5,11.3,16.5,18.1
		c2.4-0.9,4.9-1.8,7.4-2.4c6.8-1.8,13.8-2.4,20.6-1.5c-5.7-9.7-15.2-17.9-25-26.3c-0.8-0.7-1.7-1.4-2.5-2.1
		c-4.5,4.2-9.3,8-13.9,11.7C286.6,44.7,285.6,45.6,284.6,46.4L284.6,46.4z M199.5,113.1c1,1.2,2,2.4,2.9,3.6
		c5.6-6.4,11.4-12.1,18.3-16.1c-1-2.5-1.8-5-2.5-7.6c-1.8-6.8-2.4-13.8-1.5-20.6c-9.7,5.7-17.9,15.2-26.3,25
		c-0.7,0.8-1.4,1.7-2.2,2.5C192.2,104.3,195.9,108.7,199.5,113.1L199.5,113.1z M207.3,122.5c5.2,5.9,10.6,11.2,16.9,14.9
		c3-5.5,6.7-10.5,10.8-14.7c-4.2-4.2-7.9-9.4-11-15C217.8,111.3,212.4,116.6,207.3,122.5L207.3,122.5z M125.6,67.4
		c12.5,2.8,26.1,5.8,40.4,14.1c-0.2-3,0.2-6.1,1-9.2c1.6-6.4,5.2-13.1,9.5-19.9c0.3-0.5,0.5-0.8,0.4-0.9c0-0.2-0.6-0.5-1.5-0.8
		c-1.8-0.7-4.5-1.1-7.7-1.2c-11.6-0.4-29.4,3.4-44,12c-0.1,0.1-0.2,0.1-0.3,0.1l-0.3,0.2c-1.6,1-3.9,2.3-6.7,3.7
		c1.2,0.2,2.5,0.5,3.7,0.8C123,66.9,124.3,67.1,125.6,67.4L125.6,67.4z M33.8,92.6c19.5-13.4,40.1-25.8,62.9-28
		c11-2.5,18.7-7,22.6-9.3l0.3-0.2c0.1-0.1,0.2-0.1,0.3-0.2c1.8-1,3.6-2,5.5-2.9c-2.5-3.8-5.9-6.2-9.7-7.3
		c-4.7-1.3-10.3-0.6-16.1,1.8C81.5,54,70.5,52,53.9,49c-1.7-0.3-3.5-0.6-6.8-1.2c-1.6-0.3-2.2-0.9-2.2-0.7c-0.3,1.6,1.4,5.5,3.3,9.8
		c0.4,0.9,0.8,1.9,1.1,2.5c2.2,5.2-0.9,13.3-7,22.2C39.9,85.2,37,88.9,33.8,92.6L33.8,92.6z M120.2,179.2c-1.2,0.3-2.5,0.5-3.7,0.8
		c2.8,1.4,5,2.7,6.7,3.7l0.3,0.2c0.1,0,0.2,0.1,0.3,0.1c14.6,8.6,32.4,12.3,44,12c3.2-0.1,5.9-0.5,7.7-1.2c1-0.4,1.5-0.7,1.5-0.8
		c0-0.1-0.1-0.4-0.4-0.9c-4.3-6.8-7.9-13.4-9.5-19.9c-0.8-3.1-1.2-6.2-1-9.2c-14.2,8.3-27.8,11.3-40.4,14.1
		C124.3,178.2,123,178.5,120.2,179.2L120.2,179.2z M96.7,180.8c-22.8-2.2-43.5-14.6-62.9-28c3.6,4.2,6.7,8.3,9.3,12.1
		c5.6,8.5,8.3,16.1,6.2,21c-0.3,0.6-0.7,1.5-1.1,2.5c-1.9,4.3-3.6,8.2-3.3,9.8c0,0.2,0.6-0.4,2.2-0.7c3.3-0.6,5.1-0.9,6.8-1.2
		c16.6-3,27.6-5,45.7,2.5c5.8,2.4,11.3,3,16.1,1.8c3.9-1,7.2-3.4,9.7-7.3c-1.9-0.9-3.7-1.9-5.5-2.9c-0.1-0.1-0.2-0.1-0.3-0.2
		l-0.3-0.2C115.4,187.7,107.7,183.2,96.7,180.8L96.7,180.8z M227.4,97.5c6.8-2.5,14.7-3.3,24.1-1.7c-1.6-9.6-0.7-17.6,1.9-24.5
		c-2-0.8-4.1-1.5-6.2-2c-7.4-1.9-15.2-2.3-22.2-0.4c-1.9,7.1-1.6,14.8,0.4,22.2C225.9,93.3,226.6,95.4,227.4,97.5L227.4,97.5z"/>
</g>
<g class="st1">
	<path class="st2" d="M533.4,136.7c0.2,0.2,0.5,0.4,0.6,0.7c0.6-0.3,1.3-0.6,1.9-1c6.6-3.3,14-7,14.6-12.8c0-0.3,0-0.6,0-0.9
		c0-0.2,0-0.4,0-0.6c0-0.1,0-0.1,0-0.2l0,0c0-0.1,0-0.1,0-0.2s0-0.2,0-0.2c-0.1-0.5-0.1-1-0.2-1.4c-0.4-1.5-1.2-2.7-2.2-3.8
		c-0.8-0.7-1.7-1.4-2.5-2.1c-2.1-1.4-4.6-2.5-7-3.6c-1.6-0.7-3.2-1.4-4.6-2.2l0,0c-6.4,5.2-13.3,10.1-20.5,14.3
		C520.4,126.9,527.1,131.6,533.4,136.7L533.4,136.7z M527.3,141.3c-6.7-5.4-14-10.2-21.6-14.4c-13.6,7-28.3,11.9-43.2,13.8
		c-21.4,2.7-43.4-0.9-63.8-13.5c-7.2,5-13.4,11.4-19.3,18c2.5,2.4,5.1,4.8,7.9,6.9c0.1,0,0.1,0.1,0.2,0.2c1,0.8,2.1,1.6,3.2,2.3
		c14.9,10,29.5,13.2,42.9,16.2c2.4,0.5,4.8,1.1,5.5,1.2c7.2,1.7,14.1,2,20.9,1.4c2.7-0.6,5.5-1,8.5-1.3c5.6-1.2,11.1-3.1,16.5-5.4
		C499.8,160.4,513.8,150.7,527.3,141.3L527.3,141.3z M497.3,122.7c-11.5-5.4-23.7-9.1-36-10.6c-18.6-2.3-37.7,0.6-55.5,10.6
		c17.9,10.1,37,12.9,55.7,10.6C473.8,131.7,485.9,128,497.3,122.7L497.3,122.7z M462.2,104.7c15,1.8,29.7,6.7,43.4,13.8
		c7.6-4.2,14.9-9,21.6-14.4c-18.5-12.9-37.9-26.2-58.9-30.7c-2.8-0.3-5.5-0.7-8.1-1.3c-6.9-0.7-13.9-0.3-21.1,1.3
		c-0.8,0.2-3.1,0.7-5.5,1.2c-13.4,3-28,6.2-42.9,16.2c-1.1,0.7-2.1,1.5-3.2,2.3c-0.1,0.1-0.2,0.1-0.2,0.2c-2.8,2.1-5.4,4.4-7.9,6.9
		c5.9,6.6,12.1,13,19.3,18C419,105.7,440.9,102.1,462.2,104.7L462.2,104.7z M374.5,150.8l-1.7,2c-9.4,11-18.5,21.7-30.4,27.8
		c-1.3,0.7-2.6,1.2-3.9,1.8c-0.5,1.3-1.1,2.6-1.8,3.9c-6.1,11.9-16.8,21-27.8,30.4c-1.4,1.2-2.8,2.4-4.2,3.6
		c-0.1,0.2-0.3,0.4-0.5,0.6c-0.3,0.3-0.7,0.6-1.1,0.8c-7.6,6.6-15,13.7-20.6,22c-0.8,1.2-2.3,1.8-3.7,1.6c-1.4,0.2-2.9-0.4-3.7-1.6
		c-7-10.4-16.8-18.9-26.4-27c-11-9.4-21.7-18.5-27.8-30.4c-0.7-1.3-1.2-2.6-1.8-3.9c-1.3-0.5-2.6-1.1-3.9-1.8
		c-11.9-6.1-21-16.8-30.4-27.8l-1.7-2c-2.4,2.4-5,4.7-7.7,6.8c-2.3,4.2-2.4,8.8-1.2,13.7c1.4,5.6,4.6,11.5,8.5,17.7
		c1.4,2.2,1.8,4.2,1.5,6.2c-0.5,3-2.7,5.2-6.2,6.5c-2.6,1-6.1,1.6-10.2,1.7c-9.5,0.3-22.9-1.9-35.6-7c-3.6,6.1-8.7,9.8-14.7,11.4
		c-6.3,1.7-13.5,0.9-20.8-2.1c-16.1-6.7-26.2-4.8-41.5-2.1c-2.6,0.5-5.3,1-6.8,1.2c-7,1.2-10.1-1-10.8-5.4c-0.6-3.7,1.5-8.7,3.8-14
		c0.3-0.7,0.6-1.4,1-2.4c1-2.4-1.3-7.6-5.6-14c-5.3-8.1-13.6-17.4-22.7-25.9c-3.8-3.6-6.9-6.6-9.3-9.5c-3.1-2.8-5-6.2-4.8-11.1
		c0-1.1,0.1-2.2,0.4-3.4c0.4-1.8,1.2-3.4,2.1-4.7c1.9-2.9,4.7-6.1,8.7-9.7c9.7-8.7,18.7-18.6,24.6-27.3c4.8-7,7.4-12.6,6.3-15.1
		c-0.4-1-0.7-1.7-1-2.4c-2.3-5.4-4.4-10.3-3.8-14c0.7-4.4,3.8-6.6,10.8-5.4c1.5,0.3,4.2,0.7,6.8,1.2c15.3,2.8,25.4,4.6,41.5-2.1
		c7.3-3,14.5-3.8,20.8-2.1c6,1.6,11.1,5.4,14.7,11.4c12.8-5.1,26.1-7.3,35.6-7c4.1,0.1,7.6,0.7,10.2,1.7c3.5,1.4,5.7,3.5,6.2,6.5
		c0.3,1.9-0.1,4-1.5,6.2c-3.9,6.2-7.1,12.1-8.5,17.7c-1.2,4.9-1.1,9.4,1.2,13.7c2.7,2.1,5.3,4.4,7.8,6.8l1.7-2
		c9.4-11,18.5-21.7,30.4-27.8c1.3-0.7,2.6-1.2,3.9-1.8c0.5-1.3,1.1-2.6,1.8-3.9c6.1-11.9,16.8-21,27.8-30.4
		c9.6-8.1,19.4-16.6,26.4-27c0.8-1.2,2.3-1.8,3.7-1.6c1.4-0.2,2.9,0.4,3.7,1.6c7,10.4,16.8,18.9,26.4,27c11,9.4,21.7,18.5,27.8,30.4
		c0.7,1.3,1.2,2.6,1.8,3.9c1.3,0.5,2.6,1.1,3.9,1.8c11.9,6.1,21,16.8,30.4,27.8l1.7,2c2.4-2.4,5-4.6,7.7-6.8
		c2.3-4.2,2.4-8.8,1.2-13.7c-1.4-5.6-4.6-11.5-8.5-17.7c-1.4-2.2-1.8-4.2-1.5-6.2c0.5-3,2.7-5.2,6.2-6.5c2.6-1,6.1-1.6,10.2-1.7
		c9.5-0.3,22.9,1.9,35.6,7c3.6-6.1,8.7-9.8,14.7-11.4c6.3-1.7,13.5-0.9,20.8,2.1c16.1,6.7,26.2,4.8,41.5,2.1c2.6-0.5,5.3-1,6.8-1.2
		c7-1.2,10.1,1,10.8,5.4c0.6,3.7-1.5,8.7-3.8,14c-0.3,0.7-0.6,1.4-1,2.4c-1.3,3,2.3,9.8,8.4,18c6.6,8.9,16.1,18.9,25.9,27.3
		c4.5,2.8,8,6.7,8.5,13.5c0.3,2.5,0,4.7-0.6,6.7c-0.5,1.9-1.4,3.7-2.6,5.2c-0.5,0.6-1.1,1.2-1.8,1.8c-11,8.9-22,20.2-29.4,30.2
		c-6.1,8.2-9.6,15.1-8.4,18c0.4,1,0.7,1.7,1,2.4c2.3,5.4,4.4,10.3,3.8,14c-0.7,4.4-3.8,6.6-10.8,5.4c-1.5-0.3-4.2-0.7-6.8-1.2
		c-15.3-2.8-25.4-4.6-41.5,2.1c-7.3,3-14.5,3.8-20.8,2.1c-6-1.6-11.1-5.4-14.7-11.4c-12.8,5.1-26.1,7.3-35.6,7
		c-4.1-0.1-7.6-0.7-10.2-1.7c-3.5-1.4-5.7-3.5-6.2-6.5c-0.3-1.9,0.1-4,1.5-6.2c3.9-6.2,7.1-12.1,8.5-17.7c1.2-4.9,1.1-9.4-1.2-13.7
		C379.5,155.4,377,153.1,374.5,150.8L374.5,150.8z M367.2,147.9c0.7-0.9,1.5-1.7,2.2-2.6c-4-4.4-7.6-9-11.2-13.5
		c-1-1.2-1.9-2.4-2.8-3.5c-5.6,6.5-11.5,12.2-18.4,16.2c1,2.6,1.9,5.2,2.6,7.8c1.8,6.8,2.4,13.8,1.5,20.6
		C350.6,167.3,358.8,157.8,367.2,147.9L367.2,147.9z M374.3,139.7c5.4-6.1,11.2-12,17.9-17c-6.7-5-12.5-10.9-17.9-17
		c-3.6,4-7,8.2-10.3,12.3c-1.3,1.6-2.5,3.1-3.8,4.6c1.3,1.5,2.5,3.1,3.8,4.7C367.3,131.4,370.7,135.7,374.3,139.7L374.3,139.7z
		 M329.1,184.8c-6.8,0.9-13.8,0.3-20.6-1.5c-2.7-0.7-5.3-1.6-7.9-2.6c-4,6.8-9.6,12.6-16,18.2c1.2,1,2.3,1.9,3.5,2.9
		c4.5,3.6,9,7.4,13.4,11.4c0.8-0.7,1.7-1.4,2.5-2.1C313.9,202.6,323.4,194.5,329.1,184.8L329.1,184.8z M310.4,176.1
		c7.4,1.9,15.2,2.3,22.2,0.4c1.9-7.1,1.6-14.8-0.4-22.2c-0.6-2.2-1.3-4.4-2.1-6.5c-6.9,2.6-14.9,3.4-24.4,1.8
		c1.6,9.6,0.8,17.6-1.8,24.5C306,174.8,308.2,175.5,310.4,176.1L310.4,176.1z M293.6,177.4c-5.6-3-10.6-6.7-14.8-10.8
		c-4.2,4.1-9.2,7.8-14.7,10.8c3.6,6.2,8.9,11.5,14.7,16.7C284.8,188.9,290,183.6,293.6,177.4L293.6,177.4z M281.6,158.7
		c4,4.6,9.3,8.7,15.2,12c2.5-7,3-15.1,0.4-25.1c-0.5-2,0.7-4,2.7-4.5c0.6-0.2,1.3-0.1,1.9,0c9.9,2.5,18,2.1,25-0.4
		c-3.2-5.9-7.4-11.2-12-15.2c-0.1-0.1-0.3-0.2-0.4-0.4c-1.4-1.5-1.2-3.9,0.4-5.2c4.7-4.1,8.9-9.4,12.1-15.4
		c-6.9-2.4-14.9-2.8-24.8-0.3c-2,0.5-4-0.7-4.5-2.7c-0.2-0.6-0.1-1.3,0-1.9c2.6-10.1,2.1-18.2-0.4-25.1c-6.1,3.3-11.6,7.5-15.7,12.3
		c-1.4,1.5-3.7,1.7-5.2,0.4c-0.1-0.1-0.3-0.2-0.4-0.4c-4.1-4.7-9.4-8.9-15.5-12.1c-2.6,7-3.1,15.1-0.5,25.1c0.2,0.6,0.2,1.2,0,1.9
		c-0.5,2-2.5,3.2-4.5,2.7c-9.8-2.5-17.8-2.1-24.7,0.3c3.3,6,7.4,11.3,12.1,15.4c1.5,1.4,1.7,3.7,0.4,5.2c-0.1,0.1-0.2,0.3-0.4,0.4
		c-4.5,4-8.7,9.2-11.9,15c7,2.5,15.1,2.9,25.1,0.4c0.6-0.2,1.2-0.2,1.9,0c2,0.5,3.2,2.5,2.7,4.5c-2.6,10-2.1,18.2,0.4,25.2
		c5.9-3.2,11.1-7.3,15-11.9c0.1-0.1,0.2-0.3,0.4-0.4C277.9,157,280.3,157.2,281.6,158.7L281.6,158.7z M257.1,180.7
		c-2.6,1.1-5.3,1.9-8,2.7c-6.8,1.8-13.8,2.4-20.6,1.5c5.7,9.7,15.2,17.9,25,26.3c0.8,0.7,1.7,1.4,2.5,2.1c4.4-4.1,9.1-7.8,13.6-11.5
		c1.1-0.9,2.3-1.9,3.4-2.8C266.7,193.3,261.1,187.5,257.1,180.7L257.1,180.7z M247.3,176.1c2.3-0.6,4.5-1.3,6.6-2.2
		c-2.6-7-3.5-14.9-1.8-24.6c-9.6,1.6-17.6,0.8-24.5-1.8c-0.9,2.2-1.6,4.4-2.2,6.7c-1.9,7.4-2.3,15.2-0.4,22.2
		C232.1,178.4,239.8,178.1,247.3,176.1L247.3,176.1z M190.5,147.9c8.4,9.8,16.5,19.4,26.3,25c-0.9-6.8-0.3-13.8,1.5-20.6
		c0.7-2.7,1.6-5.4,2.7-8c-6.9-4-12.8-9.7-18.4-16.1c-1,1.2-2,2.4-3,3.7c-3.6,4.5-7.2,9-11.2,13.4C189,146.2,189.7,147.1,190.5,147.9
		L190.5,147.9z M178.2,145.1c-5.9-6.6-12.1-13-19.3-18c-21.1,13.1-43.9,16.4-66.1,13.2c-14.1-2.1-27.9-6.8-40.9-13.4
		c-7.6,4.2-14.9,9-21.6,14.4c18.5,12.9,37.9,26.2,58.9,30.7c2.8,0.3,5.5,0.7,8.1,1.3c6.9,0.7,13.9,0.3,21.1-1.3
		c0.8-0.2,3.1-0.7,5.5-1.2c13.4-3,28-6.2,42.9-16.2c1.1-0.7,2.2-1.5,3.2-2.3c0.1-0.1,0.1-0.1,0.2-0.1
		C173.1,149.9,175.7,147.6,178.2,145.1L178.2,145.1z M165.5,122.7c6.7,5,12.4,10.9,17.9,17c3.6-4,7-8.3,10.3-12.4
		c1.3-1.6,2.6-3.2,3.9-4.8c-1.3-1.5-2.6-3.1-3.8-4.7c-3.3-4.1-6.7-8.2-10.3-12.2C178,111.8,172.2,117.7,165.5,122.7L165.5,122.7z
		 M151.8,122.7c-18.4-10.4-38.2-13.1-57.5-10.4c-11.7,1.6-23.2,5.3-34.1,10.4c10.8,5,22.1,8.6,33.6,10.3
		C113.3,135.8,133.2,133.2,151.8,122.7L151.8,122.7z M93.3,105c22-3.1,44.6,0.3,65.6,13.3c7.2-5,13.4-11.4,19.3-18
		c-2.5-2.4-5.1-4.7-7.9-6.8c-0.1-0.1-0.2-0.1-0.3-0.2c-1-0.8-2.1-1.5-3.2-2.3c-14.9-10-29.5-13.2-42.9-16.2
		c-2.4-0.5-4.8-1.1-5.5-1.2c-7.2-1.7-14.2-2-21.1-1.3c-2.5,0.5-5.2,1-8.1,1.3c-21,4.5-40.5,17.8-58.9,30.7
		c6.7,5.4,14,10.2,21.6,14.4C65,111.8,79,107,93.3,105L93.3,105z M23.9,137c6.4-5.2,13.2-10,20.4-14.3c-7.2-4.2-14-9-20.4-14.2
		c-2,1.3-3.9,2.4-5.7,3.5c-6.2,3.7-10.4,6.2-10.6,10.6c0,0.3,0,0.5,0.1,0.8c0.2,1.4,0.9,2.8,2.1,4.4c2,2.1,5.2,3.9,8.9,6.1
		C20.3,134.8,22.1,135.8,23.9,137L23.9,137z M274.4,207.5c-4.2,3.4-8.5,6.9-12.6,10.6c6.1,5.5,12.1,11.2,17.1,17.9
		c5-6.7,11-12.5,17.1-17.9c-4-3.7-8.3-7.1-12.4-10.5c-1.6-1.3-3.1-2.5-4.6-3.8C277.4,205,275.9,206.2,274.4,207.5L274.4,207.5z
		 M333.6,137.5c6.3-3.7,11.7-9,16.9-15c-5.2-6-10.5-11.3-16.7-14.9c-3,5.7-6.8,10.8-11,15.1C326.8,126.9,330.6,132,333.6,137.5
		L333.6,137.5z M355.3,116.8c0.9-1.2,1.9-2.3,2.8-3.5c3.6-4.4,7.2-8.9,11.2-13.3c-0.7-0.8-1.4-1.7-2.2-2.5
		c-8.4-9.8-16.5-19.4-26.3-25c0.9,6.8,0.3,13.8-1.5,20.6c-0.7,2.6-1.5,5.1-2.5,7.6C343.8,104.5,349.7,110.3,355.3,116.8L355.3,116.8
		z M391.7,81.6c14.2-8.3,27.8-11.3,40.4-14.1c1.3-0.3,2.6-0.6,5.5-1.2c1.2-0.3,2.5-0.5,3.7-0.8c-2.8-1.4-5-2.7-6.7-3.7l-0.3-0.2
		c-0.1,0-0.2-0.1-0.3-0.1c-14.6-8.6-32.4-12.3-44-12c-3.2,0.1-5.9,0.5-7.7,1.2c-1,0.4-1.5,0.7-1.5,0.8s0.1,0.4,0.4,0.9
		c4.3,6.8,7.9,13.4,9.5,19.9C391.5,75.5,391.8,78.6,391.7,81.6L391.7,81.6z M460.9,64.6c22.8,2.2,43.5,14.6,62.9,28
		c-2.3-2.6-4.4-5.3-6.3-7.8c-7.6-10.2-11.6-19.6-9.2-25.3c0.3-0.6,0.7-1.5,1.1-2.5c1.9-4.3,3.6-8.2,3.3-9.8c0-0.2-0.6,0.4-2.2,0.7
		c-3.3,0.6-5.1,0.9-6.8,1.2c-16.6,3-27.6,5-45.7-2.5c-5.8-2.4-11.3-3-16.1-1.8c-3.9,1-7.2,3.4-9.7,7.3c1.9,0.9,3.7,1.9,5.5,2.9
		c0.1,0.1,0.2,0.1,0.3,0.2l0.3,0.2C442.2,57.7,449.9,62.1,460.9,64.6L460.9,64.6z M523.9,152.7c-11.4,7.9-23.3,15.4-35.8,20.7
		c-8.7,3.7-17.7,6.3-27,7.3c-11.1,2.5-18.8,7-22.8,9.3l-0.3,0.2c-0.1,0.1-0.2,0.1-0.3,0.2c-1.8,1-3.6,2-5.5,2.9
		c2.5,3.8,5.9,6.2,9.7,7.3c4.7,1.3,10.3,0.6,16.1-1.8c18.1-7.5,29.1-5.5,45.7-2.5c1.7,0.3,3.5,0.6,6.8,1.2c1.6,0.3,2.2,0.9,2.2,0.7
		c0.3-1.6-1.4-5.5-3.3-9.8c-0.4-0.9-0.8-1.9-1.1-2.5c-2.4-5.7,1.7-15.1,9.3-25.4C519.5,158,521.6,155.4,523.9,152.7L523.9,152.7z
		 M441.2,180c-1.2-0.2-2.5-0.5-3.7-0.8c-2.8-0.7-4.1-1-5.5-1.2c-12.5-2.8-26.1-5.8-40.4-14.1c0.2,3-0.2,6.1-1,9.2
		c-1.6,6.4-5.2,13.1-9.5,19.9c-0.3,0.5-0.5,0.8-0.4,0.9c0,0.2,0.6,0.5,1.5,0.8c1.8,0.7,4.5,1.1,7.7,1.2c11.6,0.4,29.4-3.4,44-12
		c0.1-0.1,0.2-0.1,0.3-0.1l0.3-0.2C436.2,182.7,438.4,181.4,441.2,180L441.2,180z M306.1,95.7c9.4-1.6,17.3-0.8,24.1,1.7
		c0.8-2,1.5-4.1,2-6.2c1.9-7.4,2.3-15.2,0.4-22.2c-7.1-1.9-14.8-1.6-22.2,0.4c-2,0.5-4,1.2-6,1.9C307,78,307.8,85.9,306.1,95.7
		L306.1,95.7z M294.1,67.7c-3.8-6.2-9.2-11.4-15.3-16.5c-6,5.1-11.3,10.4-15,16.6c5.7,3,10.8,6.8,15.1,11
		C283.1,74.6,288.4,70.8,294.1,67.7L294.1,67.7z M272.9,46.4l-1.4-1.1c-5.2-4.1-10.5-8.4-15.5-13.1c-0.8,0.7-1.7,1.4-2.5,2.1
		c-9.8,8.4-19.4,16.5-25,26.3c6.8-0.9,13.8-0.3,20.6,1.5c2.6,0.7,5.1,1.5,7.6,2.5C260.8,57.8,266.5,52,272.9,46.4L272.9,46.4z
		 M276.2,39.5c0.9,0.7,1.7,1.4,2.5,2c1.4-1.1,2.8-2.3,4.3-3.5c4.3-3.5,8.7-7,12.9-10.8c-6.1-5.4-12.1-11.2-17.1-17.9
		c-5,6.7-11,12.5-17.1,18C266.4,31.7,271.4,35.7,276.2,39.5L276.2,39.5z M284.6,46.4c6.6,5.6,12.5,11.3,16.5,18.1
		c2.4-0.9,4.9-1.8,7.4-2.4c6.8-1.8,13.8-2.4,20.6-1.5c-5.7-9.7-15.2-17.9-25-26.3c-0.8-0.7-1.7-1.4-2.5-2.1
		c-4.5,4.2-9.3,8-13.9,11.7C286.6,44.7,285.6,45.6,284.6,46.4L284.6,46.4z M199.5,113.1c1,1.2,2,2.4,2.9,3.6
		c5.6-6.4,11.4-12.1,18.3-16.1c-1-2.5-1.8-5-2.5-7.6c-1.8-6.8-2.4-13.8-1.5-20.6c-9.7,5.7-17.9,15.2-26.3,25
		c-0.7,0.8-1.4,1.7-2.2,2.5C192.2,104.3,195.9,108.7,199.5,113.1L199.5,113.1z M207.3,122.5c5.2,5.9,10.6,11.2,16.9,14.9
		c3-5.5,6.7-10.5,10.8-14.7c-4.2-4.2-7.9-9.4-11-15C217.8,111.3,212.4,116.6,207.3,122.5L207.3,122.5z M125.6,67.4
		c12.5,2.8,26.1,5.8,40.4,14.1c-0.2-3,0.2-6.1,1-9.2c1.6-6.4,5.2-13.1,9.5-19.9c0.3-0.5,0.5-0.8,0.4-0.9c0-0.2-0.6-0.5-1.5-0.8
		c-1.8-0.7-4.5-1.1-7.7-1.2c-11.6-0.4-29.4,3.4-44,12c-0.1,0.1-0.2,0.1-0.3,0.1l-0.3,0.2c-1.6,1-3.9,2.3-6.7,3.7
		c1.2,0.2,2.5,0.5,3.7,0.8C123,66.9,124.3,67.1,125.6,67.4L125.6,67.4z M33.8,92.6c19.5-13.4,40.1-25.8,62.9-28
		c11-2.5,18.7-7,22.6-9.3l0.3-0.2c0.1-0.1,0.2-0.1,0.3-0.2c1.8-1,3.6-2,5.5-2.9c-2.5-3.8-5.9-6.2-9.7-7.3
		c-4.7-1.3-10.3-0.6-16.1,1.8C81.5,54,70.5,52,53.9,49c-1.7-0.3-3.5-0.6-6.8-1.2c-1.6-0.3-2.2-0.9-2.2-0.7c-0.3,1.6,1.4,5.5,3.3,9.8
		c0.4,0.9,0.8,1.9,1.1,2.5c2.2,5.2-0.9,13.3-7,22.2C39.9,85.2,37,88.9,33.8,92.6L33.8,92.6z M120.2,179.2c-1.2,0.3-2.5,0.5-3.7,0.8
		c2.8,1.4,5,2.7,6.7,3.7l0.3,0.2c0.1,0,0.2,0.1,0.3,0.1c14.6,8.6,32.4,12.3,44,12c3.2-0.1,5.9-0.5,7.7-1.2c1-0.4,1.5-0.7,1.5-0.8
		c0-0.1-0.1-0.4-0.4-0.9c-4.3-6.8-7.9-13.4-9.5-19.9c-0.8-3.1-1.2-6.2-1-9.2c-14.2,8.3-27.8,11.3-40.4,14.1
		C124.3,178.2,123,178.5,120.2,179.2L120.2,179.2z M96.7,180.8c-22.8-2.2-43.5-14.6-62.9-28c3.6,4.2,6.7,8.3,9.3,12.1
		c5.6,8.5,8.3,16.1,6.2,21c-0.3,0.6-0.7,1.5-1.1,2.5c-1.9,4.3-3.6,8.2-3.3,9.8c0,0.2,0.6-0.4,2.2-0.7c3.3-0.6,5.1-0.9,6.8-1.2
		c16.6-3,27.6-5,45.7,2.5c5.8,2.4,11.3,3,16.1,1.8c3.9-1,7.2-3.4,9.7-7.3c-1.9-0.9-3.7-1.9-5.5-2.9c-0.1-0.1-0.2-0.1-0.3-0.2
		l-0.3-0.2C115.4,187.7,107.7,183.2,96.7,180.8L96.7,180.8z M227.4,97.5c6.8-2.5,14.7-3.3,24.1-1.7c-1.6-9.6-0.7-17.6,1.9-24.5
		c-2-0.8-4.1-1.5-6.2-2c-7.4-1.9-15.2-2.3-22.2-0.4c-1.9,7.1-1.6,14.8,0.4,22.2C225.9,93.3,226.6,95.4,227.4,97.5L227.4,97.5z"/>
</g>
</svg>
