<?xml version="1.0" encoding="utf-8"?>
<!-- Generator: Adobe Illustrator 27.1.1, SVG Export Plug-In . SVG Version: 6.00 Build 0)  -->
<svg version="1.1" id="Layer_1" xmlns="http://www.w3.org/2000/svg" xmlns:xlink="http://www.w3.org/1999/xlink" x="0px" y="0px"
	 viewBox="0 0 490.1 560.2" style="enable-background:new 0 0 490.1 560.2;" xml:space="preserve">
<style type="text/css">
	.st0{fill:#F0F8FF;}
	.st1{display:none;}
</style>
<path class="st0" d="M479.8,255.4l-210-245.1c-13.7-13.7-35.8-13.7-49.5,0l-210,245.1c-13.7,13.7-13.7,35.8,0,49.5l210.1,245
	c13.7,13.7,35.8,13.7,49.5,0l210-245C493.5,291.2,493.5,269.1,479.8,255.4L479.8,255.4z"/>
<path class="st1" d="M479.8,255.4l-210-245.1c-13.7-13.7-35.8-13.7-49.5,0l-210,245.1c-13.7,13.7-13.7,35.8,0,49.5l210.1,245
	c13.7,13.7,35.8,13.7,49.5,0l210-245C493.5,291.2,493.5,269.1,479.8,255.4L479.8,255.4z"/>
</svg>
